<svg width="49" height="49" viewBox="0 0 49 49" fill="none" xmlns="http://www.w3.org/2000/svg">
<path d="M42.2241 36.14V38.14C42.2241 40.34 40.4241 42.14 38.2241 42.14H10.2241C8.00412 42.14 6.22412 40.34 6.22412 38.14V10.14C6.22412 7.94001 8.00412 6.14001 10.2241 6.14001H38.2241C40.4241 6.14001 42.2241 7.94001 42.2241 10.14V12.14H24.2241C22.0041 12.14 20.2241 13.94 20.2241 16.14V32.14C20.2241 34.34 22.0041 36.14 24.2241 36.14H42.2241ZM24.2241 32.14H44.2241V16.14H24.2241V32.14ZM32.2241 27.14C30.5641 27.14 29.2241 25.8 29.2241 24.14C29.2241 22.48 30.5641 21.14 32.2241 21.14C33.8841 21.14 35.2241 22.48 35.2241 24.14C35.2241 25.8 33.8841 27.14 32.2241 27.14Z" fill="white"/>
</svg>
