<svg width="49" height="49" viewBox="0 0 49 49" fill="none" xmlns="http://www.w3.org/2000/svg">
<g clip-path="url(#clip0_120_6)">
<path d="M46.2777 3.24365H3.07773C1.75248 3.24365 0.677734 4.58709 0.677734 6.24365V42.2437C0.677734 43.9002 1.75248 45.2437 3.07773 45.2437H46.2777C47.603 45.2437 48.6777 43.9002 48.6777 42.2437V6.24365C48.6777 4.58709 47.603 3.24365 46.2777 3.24365ZM13.8777 30.9824V32.4937C13.8777 32.908 13.6092 33.2437 13.2777 33.2437H12.0777C11.7462 33.2437 11.4777 32.908 11.4777 32.4937V30.9665C10.631 30.9121 9.80748 30.5427 9.12498 29.9024C8.83248 29.6277 8.81748 29.0802 9.08223 28.7643L9.96348 27.7133C10.1712 27.4658 10.4802 27.4546 10.7232 27.6449C11.0135 27.8718 11.3427 27.9937 11.6847 27.9937H13.793C14.2805 27.9937 14.678 27.4387 14.678 26.7571C14.678 26.1993 14.4072 25.708 14.0202 25.5637L10.6452 24.298C9.25098 23.7749 8.27673 22.1024 8.27673 20.2302C8.27673 17.9315 9.70549 16.064 11.477 16.0049V14.4937C11.477 14.0793 11.7455 13.7437 12.077 13.7437H13.277C13.6085 13.7437 13.877 14.0793 13.877 14.4937V16.0208C14.7237 16.0752 15.5472 16.4437 16.2297 17.0849C16.5222 17.3596 16.5372 17.9071 16.2725 18.223L15.3912 19.274C15.1835 19.5215 14.8745 19.5327 14.6315 19.3424C14.3412 19.1146 14.012 18.9937 13.67 18.9937H11.5617C11.0742 18.9937 10.6767 19.5487 10.6767 20.2302C10.6767 20.788 10.9475 21.2793 11.3345 21.4237L14.7095 22.6893C16.1037 23.2124 17.078 24.8849 17.078 26.7571C17.078 29.0568 15.6492 30.9233 13.8777 30.9824ZM31.8777 29.4937C31.8777 29.908 31.6092 30.2437 31.2777 30.2437H22.8777C22.5462 30.2437 22.2777 29.908 22.2777 29.4937V27.9937C22.2777 27.5793 22.5462 27.2437 22.8777 27.2437H31.2777C31.6092 27.2437 31.8777 27.5793 31.8777 27.9937V29.4937ZM43.8777 29.4937C43.8777 29.908 43.6092 30.2437 43.2777 30.2437H37.2777C36.9462 30.2437 36.6777 29.908 36.6777 29.4937V27.9937C36.6777 27.5793 36.9462 27.2437 37.2777 27.2437H43.2777C43.6092 27.2437 43.8777 27.5793 43.8777 27.9937V29.4937ZM43.8777 20.4937C43.8777 20.908 43.6092 21.2437 43.2777 21.2437H22.8777C22.5462 21.2437 22.2777 20.908 22.2777 20.4937V18.9937C22.2777 18.5793 22.5462 18.2437 22.8777 18.2437H43.2777C43.6092 18.2437 43.8777 18.5793 43.8777 18.9937V20.4937Z" fill="white"/>
</g>
<defs>
<clipPath id="clip0_120_6">
<rect width="48" height="48" fill="white" transform="translate(0.677734 0.243652)"/>
</clipPath>
</defs>
</svg>
