<svg width="49" height="49" viewBox="0 0 49 49" fill="none" xmlns="http://www.w3.org/2000/svg">
<g clip-path="url(#clip0_105_9)">
<path d="M2.33398 3.13745C1.93616 3.13745 1.55463 3.29549 1.27332 3.57679C0.99202 3.8581 0.833984 4.23963 0.833984 4.63745C0.833984 5.03528 0.99202 5.41681 1.27332 5.69811C1.55463 5.97942 1.93616 6.13745 2.33398 6.13745H5.66398L6.86698 10.9585L11.361 34.9135C11.4253 35.2572 11.6078 35.5676 11.8767 35.7911C12.1457 36.0146 12.4843 36.1371 12.834 36.1375H15.834C14.2427 36.1375 12.7166 36.7696 11.5913 37.8948C10.4661 39.02 9.83399 40.5462 9.83399 42.1375C9.83399 43.7288 10.4661 45.2549 11.5913 46.3801C12.7166 47.5053 14.2427 48.1375 15.834 48.1375C17.4253 48.1375 18.9514 47.5053 20.0766 46.3801C21.2018 45.2549 21.834 43.7288 21.834 42.1375C21.834 40.5462 21.2018 39.02 20.0766 37.8948C18.9514 36.7696 17.4253 36.1375 15.834 36.1375H36.834C35.2427 36.1375 33.7166 36.7696 32.5913 37.8948C31.4661 39.02 30.834 40.5462 30.834 42.1375C30.834 43.7288 31.4661 45.2549 32.5913 46.3801C33.7166 47.5053 35.2427 48.1375 36.834 48.1375C38.4253 48.1375 39.9514 47.5053 41.0766 46.3801C42.2018 45.2549 42.834 43.7288 42.834 42.1375C42.834 40.5462 42.2018 39.02 41.0766 37.8948C39.9514 36.7696 38.4253 36.1375 36.834 36.1375H39.834C40.1837 36.1371 40.5223 36.0146 40.7913 35.7911C41.0602 35.5676 41.2426 35.2572 41.307 34.9135L45.807 10.9135C45.8475 10.697 45.8399 10.4742 45.7846 10.261C45.7293 10.0478 45.6278 9.84939 45.4872 9.67986C45.3466 9.51033 45.1703 9.37385 44.971 9.2801C44.7717 9.18636 44.5542 9.13766 44.334 9.13745H9.50399L8.28898 4.27445C8.20801 3.9498 8.02082 3.66155 7.75718 3.45553C7.49354 3.2495 7.16858 3.13754 6.83398 3.13745H2.33398ZM18.834 42.1375C18.834 42.9331 18.5179 43.6962 17.9553 44.2588C17.3927 44.8214 16.6296 45.1375 15.834 45.1375C15.0383 45.1375 14.2753 44.8214 13.7127 44.2588C13.1501 43.6962 12.834 42.9331 12.834 42.1375C12.834 41.3418 13.1501 40.5787 13.7127 40.0161C14.2753 39.4535 15.0383 39.1375 15.834 39.1375C16.6296 39.1375 17.3927 39.4535 17.9553 40.0161C18.5179 40.5787 18.834 41.3418 18.834 42.1375ZM39.834 42.1375C39.834 42.9331 39.5179 43.6962 38.9553 44.2588C38.3927 44.8214 37.6296 45.1375 36.834 45.1375C36.0383 45.1375 35.2753 44.8214 34.7127 44.2588C34.1501 43.6962 33.834 42.9331 33.834 42.1375C33.834 41.3418 34.1501 40.5787 34.7127 40.0161C35.2753 39.4535 36.0383 39.1375 36.834 39.1375C37.6296 39.1375 38.3927 39.4535 38.9553 40.0161C39.5179 40.5787 39.834 41.3418 39.834 42.1375ZM34.896 19.1995L25.896 28.1995C25.7566 28.3391 25.5911 28.45 25.4089 28.5256C25.2267 28.6012 25.0313 28.6401 24.834 28.6401C24.6367 28.6401 24.4413 28.6012 24.2591 28.5256C24.0768 28.45 23.9113 28.3391 23.772 28.1995L19.272 23.6995C19.1325 23.56 19.0219 23.3944 18.9464 23.2122C18.8709 23.03 18.8321 22.8347 18.8321 22.6375C18.8321 22.4402 18.8709 22.2449 18.9464 22.0627C19.0219 21.8805 19.1325 21.7149 19.272 21.5755C19.4114 21.436 19.577 21.3254 19.7592 21.2499C19.9415 21.1744 20.1368 21.1356 20.334 21.1356C20.5312 21.1356 20.7265 21.1744 20.9087 21.2499C21.091 21.3254 21.2565 21.436 21.396 21.5755L24.834 25.0165L32.772 17.0755C32.9115 16.936 33.077 16.8254 33.2592 16.7499C33.4415 16.6744 33.6368 16.6356 33.834 16.6356C34.0312 16.6356 34.2265 16.6744 34.4087 16.7499C34.591 16.8254 34.7565 16.936 34.896 17.0755C35.0355 17.2149 35.1461 17.3805 35.2216 17.5627C35.297 17.7449 35.3359 17.9402 35.3359 18.1375C35.3359 18.3347 35.297 18.53 35.2216 18.7122C35.1461 18.8944 35.0355 19.06 34.896 19.1995Z" fill="white"/>
</g>
<defs>
<clipPath id="clip0_105_9">
<rect width="48" height="48" fill="white" transform="translate(0.833984 0.137451)"/>
</clipPath>
</defs>
</svg>
