<svg width="48" height="48" viewBox="0 0 48 48" fill="none" xmlns="http://www.w3.org/2000/svg">
<path d="M20.5 46C22.433 46 24 44.433 24 42.5C24 40.567 22.433 39 20.5 39C18.567 39 17 40.567 17 42.5C17 44.433 18.567 46 20.5 46Z" fill="white"/>
<path d="M37.5 46C39.433 46 41 44.433 41 42.5C41 40.567 39.433 39 37.5 39C35.567 39 34 40.567 34 42.5C34 44.433 35.567 46 37.5 46Z" fill="white"/>
<path d="M5 7L14 13L19 35H39L44 18H25" stroke="white" stroke-width="4" stroke-linecap="round" stroke-linejoin="round"/>
<path d="M32.7987 21L31.7439 22.1339L27.4943 26.5118L26.2561 25.2835L25.1554 24.1496L23 26.3701L24.1006 27.5039L26.3936 29.8661L27.4484 31L28.549 29.8661L33.8994 24.3543L35 23.2205L32.7987 21Z" fill="white"/>
</svg>
