<svg width="49" height="49" viewBox="0 0 49 49" fill="none" xmlns="http://www.w3.org/2000/svg">
<g clip-path="url(#clip0_123_9)">
<path d="M36.1162 16.1157H20.1162C17.9071 16.1157 16.1162 17.9066 16.1162 20.1157V36.1157C16.1162 38.3249 17.9071 40.1157 20.1162 40.1157H36.1162C38.3253 40.1157 40.1162 38.3249 40.1162 36.1157V20.1157C40.1162 17.9066 38.3253 16.1157 36.1162 16.1157Z" stroke="#7E4FFF" stroke-width="2" stroke-linecap="round" stroke-linejoin="round"/>
<path d="M32.1162 16.1157V12.1157C32.1162 11.0549 31.6948 10.0374 30.9446 9.2873C30.1945 8.53715 29.1771 8.11572 28.1162 8.11572H12.1162C11.0553 8.11572 10.0379 8.53715 9.28778 9.2873C8.53764 10.0374 8.11621 11.0549 8.11621 12.1157V28.1157C8.11621 29.1766 8.53764 30.194 9.28778 30.9441C10.0379 31.6943 11.0553 32.1157 12.1162 32.1157H16.1162" stroke="#7E4FFF" stroke-width="2" stroke-linecap="round" stroke-linejoin="round"/>
</g>
<defs>
<clipPath id="clip0_123_9">
<rect width="48" height="48" fill="white" transform="translate(0.116211 0.115723)"/>
</clipPath>
</defs>
</svg>
