<svg width="146" height="156" viewBox="0 0 146 156" fill="none" xmlns="http://www.w3.org/2000/svg">
<g filter="url(#filter0_d_111_15)">
<rect x="5" y="1" width="115" height="119" rx="10" fill="white"/>
</g>
<rect x="12" y="15" width="25" height="25" rx="12.5" fill="#E3E3E3"/>
<rect x="45" y="23" width="52" height="7" rx="3.5" fill="#E3E3E3"/>
<rect x="12" y="49" width="38" height="7" rx="3.5" fill="#E3E3E3"/>
<rect x="12" y="62" width="38" height="7" rx="3.5" fill="#E3E3E3"/>
<rect x="12" y="94" width="56" height="7" rx="3.5" fill="#E3E3E3"/>
<rect x="79" y="94" width="33" height="7" rx="3.5" fill="#E3E3E3"/>
<rect x="59" y="49" width="38" height="7" rx="3.5" fill="#E3E3E3"/>
<rect x="59" y="62" width="38" height="7" rx="3.5" fill="#E3E3E3"/>
<rect x="12" y="81" width="100" height="7" rx="3.5" fill="#E3E3E3"/>
<g filter="url(#filter1_d_111_15)">
<rect x="96" y="102" width="35" height="35" rx="17.5" fill="white"/>
</g>
<path d="M113.5 113.167C113.732 113.167 113.955 113.25 114.119 113.399C114.283 113.547 114.375 113.748 114.375 113.958V123.131L118.131 119.732C118.296 119.588 118.517 119.508 118.747 119.51C118.976 119.512 119.196 119.595 119.358 119.742C119.52 119.888 119.612 120.087 119.614 120.295C119.616 120.502 119.528 120.702 119.369 120.851L114.119 125.601C113.955 125.75 113.732 125.833 113.5 125.833C113.268 125.833 113.045 125.75 112.881 125.601L107.631 120.851C107.548 120.778 107.481 120.691 107.435 120.594C107.389 120.498 107.365 120.394 107.364 120.289C107.363 120.184 107.385 120.08 107.429 119.982C107.473 119.885 107.538 119.797 107.621 119.722C107.703 119.648 107.8 119.589 107.908 119.549C108.015 119.51 108.131 119.489 108.247 119.49C108.363 119.491 108.478 119.513 108.585 119.555C108.691 119.596 108.788 119.656 108.869 119.732L112.625 123.131V113.958C112.625 113.748 112.717 113.547 112.881 113.399C113.045 113.25 113.268 113.167 113.5 113.167Z" fill="#0D0D0D"/>
<defs>
<filter id="filter0_d_111_15" x="0" y="0" width="125" height="129" filterUnits="userSpaceOnUse" color-interpolation-filters="sRGB">
<feFlood flood-opacity="0" result="BackgroundImageFix"/>
<feColorMatrix in="SourceAlpha" type="matrix" values="0 0 0 0 0 0 0 0 0 0 0 0 0 0 0 0 0 0 127 0" result="hardAlpha"/>
<feOffset dy="4"/>
<feGaussianBlur stdDeviation="2.5"/>
<feComposite in2="hardAlpha" operator="out"/>
<feColorMatrix type="matrix" values="0 0 0 0 0 0 0 0 0 0 0 0 0 0 0 0 0 0 0.15 0"/>
<feBlend mode="normal" in2="BackgroundImageFix" result="effect1_dropShadow_111_15"/>
<feBlend mode="normal" in="SourceGraphic" in2="effect1_dropShadow_111_15" result="shape"/>
</filter>
<filter id="filter1_d_111_15" x="81" y="91" width="65" height="65" filterUnits="userSpaceOnUse" color-interpolation-filters="sRGB">
<feFlood flood-opacity="0" result="BackgroundImageFix"/>
<feColorMatrix in="SourceAlpha" type="matrix" values="0 0 0 0 0 0 0 0 0 0 0 0 0 0 0 0 0 0 127 0" result="hardAlpha"/>
<feOffset dy="4"/>
<feGaussianBlur stdDeviation="7.5"/>
<feComposite in2="hardAlpha" operator="out"/>
<feColorMatrix type="matrix" values="0 0 0 0 0 0 0 0 0 0 0 0 0 0 0 0 0 0 0.2 0"/>
<feBlend mode="normal" in2="BackgroundImageFix" result="effect1_dropShadow_111_15"/>
<feBlend mode="normal" in="SourceGraphic" in2="effect1_dropShadow_111_15" result="shape"/>
</filter>
</defs>
</svg>
