<svg width="49" height="49" viewBox="0 0 49 49" fill="none" xmlns="http://www.w3.org/2000/svg">
<g clip-path="url(#clip0_88_2)">
<path fill-rule="evenodd" clip-rule="evenodd" d="M34.7075 6.91279C34.1166 6.91279 33.5314 7.02919 32.9854 7.25533C32.4395 7.48148 31.9434 7.81295 31.5255 8.23081C31.1077 8.64868 30.7762 9.14475 30.5501 9.69072C30.3239 10.2367 30.2075 10.8218 30.2075 11.4128C30.2075 12.0037 30.3239 12.5889 30.5501 13.1349C30.7762 13.6808 31.1077 14.1769 31.5255 14.5948C31.9434 15.0126 32.4395 15.3441 32.9854 15.5703C33.5314 15.7964 34.1166 15.9128 34.7075 15.9128C35.901 15.9128 37.0456 15.4387 37.8895 14.5948C38.7334 13.7509 39.2075 12.6063 39.2075 11.4128C39.2075 10.2193 38.7334 9.07473 37.8895 8.23081C37.0456 7.3869 35.901 6.91279 34.7075 6.91279ZM27.3575 9.91279C27.7018 8.21736 28.6216 6.69308 29.9611 5.59823C31.3006 4.50337 32.9775 3.90527 34.7075 3.90527C36.4376 3.90527 38.1144 4.50337 39.4539 5.59823C40.7934 6.69308 41.7132 8.21736 42.0575 9.91279H48.2075V12.9128H42.0575C41.7132 14.6082 40.7934 16.1325 39.4539 17.2274C38.1144 18.3222 36.4376 18.9203 34.7075 18.9203C32.9775 18.9203 31.3006 18.3222 29.9611 17.2274C28.6216 16.1325 27.7018 14.6082 27.3575 12.9128H0.20752V9.91279H27.3575ZM13.7075 21.9128C12.514 21.9128 11.3695 22.3869 10.5255 23.2308C9.68163 24.0747 9.20752 25.2193 9.20752 26.4128C9.20752 27.6063 9.68163 28.7509 10.5255 29.5948C11.3695 30.4387 12.514 30.9128 13.7075 30.9128C14.901 30.9128 16.0456 30.4387 16.8895 29.5948C17.7334 28.7509 18.2075 27.6063 18.2075 26.4128C18.2075 25.2193 17.7334 24.0747 16.8895 23.2308C16.0456 22.3869 14.901 21.9128 13.7075 21.9128ZM6.35752 24.9128C6.70179 23.2174 7.62161 21.6931 8.96113 20.5982C10.3007 19.5034 11.9775 18.9053 13.7075 18.9053C15.4376 18.9053 17.1144 19.5034 18.4539 20.5982C19.7934 21.6931 20.7132 23.2174 21.0575 24.9128H48.2075V27.9128H21.0575C20.7132 29.6082 19.7934 31.1325 18.4539 32.2274C17.1144 33.3222 15.4376 33.9203 13.7075 33.9203C11.9775 33.9203 10.3007 33.3222 8.96113 32.2274C7.62161 31.1325 6.70179 29.6082 6.35752 27.9128H0.20752V24.9128H6.35752ZM34.7075 36.9128C33.514 36.9128 32.3695 37.3869 31.5255 38.2308C30.6816 39.0747 30.2075 40.2193 30.2075 41.4128C30.2075 42.6063 30.6816 43.7509 31.5255 44.5948C32.3695 45.4387 33.514 45.9128 34.7075 45.9128C35.901 45.9128 37.0456 45.4387 37.8895 44.5948C38.7334 43.7509 39.2075 42.6063 39.2075 41.4128C39.2075 40.2193 38.7334 39.0747 37.8895 38.2308C37.0456 37.3869 35.901 36.9128 34.7075 36.9128ZM27.3575 39.9128C27.7018 38.2174 28.6216 36.6931 29.9611 35.5982C31.3006 34.5034 32.9775 33.9053 34.7075 33.9053C36.4376 33.9053 38.1144 34.5034 39.4539 35.5982C40.7934 36.6931 41.7132 38.2174 42.0575 39.9128H48.2075V42.9128H42.0575C41.7132 44.6082 40.7934 46.1325 39.4539 47.2274C38.1144 48.3222 36.4376 48.9203 34.7075 48.9203C32.9775 48.9203 31.3006 48.3222 29.9611 47.2274C28.6216 46.1325 27.7018 44.6082 27.3575 42.9128H0.20752V39.9128H27.3575Z" fill="#374957"/>
</g>
<defs>
<clipPath id="clip0_88_2">
<rect width="48" height="48" fill="white" transform="translate(0.20752 0.912842)"/>
</clipPath>
</defs>
</svg>
