<svg width="49" height="49" viewBox="0 0 49 49" fill="none" xmlns="http://www.w3.org/2000/svg">
<path d="M14.7065 8.20941C14.7065 7.14855 15.128 6.13113 15.8781 5.38098C16.6283 4.63084 17.6457 4.20941 18.7065 4.20941H30.7065C31.7674 4.20941 32.7848 4.63084 33.535 5.38098C34.2851 6.13113 34.7065 7.14855 34.7065 8.20941V12.2094H42.7065C43.237 12.2094 43.7457 12.4201 44.1208 12.7952C44.4958 13.1703 44.7065 13.679 44.7065 14.2094C44.7065 14.7398 44.4958 15.2486 44.1208 15.6236C43.7457 15.9987 43.237 16.2094 42.7065 16.2094H40.5685L38.8345 40.4934C38.7627 41.5026 38.3111 42.447 37.5708 43.1366C36.8304 43.8261 35.8563 44.2094 34.8445 44.2094H14.5665C13.5548 44.2094 12.5807 43.8261 11.8403 43.1366C11.0999 42.447 10.6484 41.5026 10.5765 40.4934L8.84654 16.2094H6.70654C6.17611 16.2094 5.6674 15.9987 5.29233 15.6236C4.91726 15.2486 4.70654 14.7398 4.70654 14.2094C4.70654 13.679 4.91726 13.1703 5.29233 12.7952C5.6674 12.4201 6.17611 12.2094 6.70654 12.2094H14.7065V8.20941ZM18.7065 12.2094H30.7065V8.20941H18.7065V12.2094ZM12.8545 16.2094L14.5685 40.2094H34.8465L36.5605 16.2094H12.8545Z" fill="#7E4FFF"/>
</svg>
