<svg width="49" height="49" viewBox="0 0 49 49" fill="none" xmlns="http://www.w3.org/2000/svg">
<g clip-path="url(#clip0_51_2)">
<path d="M34.5712 28.7834C31.4962 28.7834 30.0176 30.2834 24.9712 30.2834C19.9248 30.2834 18.4569 28.7834 15.3712 28.7834C7.42119 28.7834 0.971191 34.4272 0.971191 41.3834V43.7834C0.971191 46.2678 3.27476 48.2834 6.11405 48.2834H43.8283C46.6676 48.2834 48.9712 46.2678 48.9712 43.7834V41.3834C48.9712 34.4272 42.5212 28.7834 34.5712 28.7834ZM43.8283 43.7834H6.11405V41.3834C6.11405 36.9209 10.2712 33.2834 15.3712 33.2834C16.9355 33.2834 19.4748 34.7834 24.9712 34.7834C30.5105 34.7834 32.9962 33.2834 34.5712 33.2834C39.6712 33.2834 43.8283 36.9209 43.8283 41.3834V43.7834ZM24.9712 27.2834C33.489 27.2834 40.3998 21.2366 40.3998 13.7834C40.3998 6.33032 33.489 0.283447 24.9712 0.283447C16.4533 0.283447 9.54262 6.33032 9.54262 13.7834C9.54262 21.2366 16.4533 27.2834 24.9712 27.2834ZM24.9712 4.78345C30.639 4.78345 35.2569 8.82407 35.2569 13.7834C35.2569 18.7428 30.639 22.7834 24.9712 22.7834C19.3033 22.7834 14.6855 18.7428 14.6855 13.7834C14.6855 8.82407 19.3033 4.78345 24.9712 4.78345Z" fill="#151A1E"/>
</g>
<defs>
<clipPath id="clip0_51_2">
<rect width="48" height="48" fill="white" transform="translate(0.971191 0.283447)"/>
</clipPath>
</defs>
</svg>
