<svg width="312" height="306" viewBox="0 0 312 306" fill="none" xmlns="http://www.w3.org/2000/svg">
<path d="M2.94172 68.9857C6.31263 57.2115 8.23196 40.6634 14.7606 30.3711C20.5241 21.285 31.3836 14.3739 40.4059 10.1387C57.5405 2.09529 81.7355 0.594958 98.3988 8.60627C110.896 14.6146 119.526 40.822 122.03 54.0825C124.424 66.7574 122.658 76.8938 119.049 89.5002C116.813 97.3092 114.577 105.118 112.342 112.927C109.114 124.202 106.047 126.026 96.051 129.156C85.8459 132.352 96.6181 107.839 97.7819 103.774C100.382 94.6909 102.983 85.6076 105.584 76.5242C110.365 59.8216 125.414 52.5059 139.906 56.6549C148.757 59.1889 157.608 61.7229 166.459 64.257C177.112 67.3069 179.864 71.357 185.394 81.132C192.797 94.2201 194.402 110.849 192.618 126.577C189.597 153.206 184.914 187.469 170.981 211.485C167.434 217.6 161.56 224.461 155.721 228.115C146.069 234.155 138.953 213.276 140.507 206.578C146.303 181.593 154.27 164.523 174.178 148.979C182.819 142.232 186.979 140.765 196.376 143.456C207.931 146.764 218.716 153.157 224.481 164.971C234.243 184.978 237.875 217.722 236.566 240.443C235.79 253.913 233.137 267.089 229.418 280.077C224.964 295.634 225.209 306.341 209.447 301.828C201.726 299.618 196.005 298.111 196.691 287.04C197.807 269.039 203.131 251.879 208.072 234.619C212.065 220.675 226.928 202.067 240.133 197.981C247.397 195.734 252.647 194.141 260.113 193.202C262.46 192.907 264.02 193.366 266.276 194.012C280.508 198.087 294.74 202.161 308.972 206.236" stroke="#FFC83E" stroke-width="5" stroke-linecap="round"/>
</svg>
