<svg width="49" height="49" viewBox="0 0 49 49" fill="none" xmlns="http://www.w3.org/2000/svg">
<g clip-path="url(#clip0_122_2)">
<path d="M31.7695 11.2664C33.9695 11.2664 35.7695 9.46636 35.7695 7.26636C35.7695 5.06636 33.9695 3.26636 31.7695 3.26636C29.5695 3.26636 27.7695 5.06636 27.7695 7.26636C27.7695 9.46636 29.5695 11.2664 31.7695 11.2664ZM10.7695 24.2664C5.16953 24.2664 0.769531 28.6664 0.769531 34.2664C0.769531 39.8664 5.16953 44.2664 10.7695 44.2664C16.3695 44.2664 20.7695 39.8664 20.7695 34.2664C20.7695 28.6664 16.3695 24.2664 10.7695 24.2664ZM10.7695 41.2664C6.96953 41.2664 3.76953 38.0664 3.76953 34.2664C3.76953 30.4664 6.96953 27.2664 10.7695 27.2664C14.5695 27.2664 17.7695 30.4664 17.7695 34.2664C17.7695 38.0664 14.5695 41.2664 10.7695 41.2664ZM22.3695 21.2664L27.1695 16.4664L28.7695 18.0664C31.3695 20.6664 34.7695 22.2664 38.9695 22.2664V18.2664C35.9695 18.2664 33.5695 17.0664 31.7695 15.2664L27.9695 11.4664C26.9695 10.6664 25.9695 10.2664 24.7695 10.2664C23.5695 10.2664 22.5695 10.6664 21.9695 11.4664L16.3695 17.0664C15.5695 17.8664 15.1695 18.8664 15.1695 19.8664C15.1695 21.0664 15.5695 22.0664 16.3695 22.6664L22.7695 28.2664V38.2664H26.7695V25.8664L22.3695 21.2664ZM38.7695 24.2664C33.1695 24.2664 28.7695 28.6664 28.7695 34.2664C28.7695 39.8664 33.1695 44.2664 38.7695 44.2664C44.3695 44.2664 48.7695 39.8664 48.7695 34.2664C48.7695 28.6664 44.3695 24.2664 38.7695 24.2664ZM38.7695 41.2664C34.9695 41.2664 31.7695 38.0664 31.7695 34.2664C31.7695 30.4664 34.9695 27.2664 38.7695 27.2664C42.5695 27.2664 45.7695 30.4664 45.7695 34.2664C45.7695 38.0664 42.5695 41.2664 38.7695 41.2664Z" fill="white"/>
</g>
<defs>
<clipPath id="clip0_122_2">
<rect width="48" height="48" fill="white" transform="translate(0.769531 0.266357)"/>
</clipPath>
</defs>
</svg>
