<svg width="48" height="41" viewBox="0 0 48 41" fill="none" xmlns="http://www.w3.org/2000/svg">
<path d="M31 8C33.2 8 35 6.2 35 4C35 1.8 33.2 0 31 0C28.8 0 27 1.8 27 4C27 6.2 28.8 8 31 8ZM10 21C4.4 21 0 25.4 0 31C0 36.6 4.4 41 10 41C15.6 41 20 36.6 20 31C20 25.4 15.6 21 10 21ZM10 38C6.2 38 3 34.8 3 31C3 27.2 6.2 24 10 24C13.8 24 17 27.2 17 31C17 34.8 13.8 38 10 38ZM21.6 18L26.4 13.2L28 14.8C30.6 17.4 34 19 38.2 19V15C35.2 15 32.8 13.8 31 12L27.2 8.2C26.2 7.4 25.2 7 24 7C22.8 7 21.8 7.4 21.2 8.2L15.6 13.8C14.8 14.6 14.4 15.6 14.4 16.6C14.4 17.8 14.8 18.8 15.6 19.4L22 25V35H26V22.6L21.6 18ZM38 21C32.4 21 28 25.4 28 31C28 36.6 32.4 41 38 41C43.6 41 48 36.6 48 31C48 25.4 43.6 21 38 21ZM38 38C34.2 38 31 34.8 31 31C31 27.2 34.2 24 38 24C41.8 24 45 27.2 45 31C45 34.8 41.8 38 38 38Z" fill="#464a53"/>
<path fill-rule="evenodd" clip-rule="evenodd" d="M37.6 40.2C42.902 40.2 47.2 35.902 47.2 30.6C47.2 25.2981 42.902 21 37.6 21C32.2981 21 28 25.2981 28 30.6C28 35.902 32.2981 40.2 37.6 40.2ZM42.0485 29.0485C42.5171 28.5799 42.5171 27.8201 42.0485 27.3515C41.5799 26.8828 40.8201 26.8828 40.3515 27.3515L36.4 31.303L34.8485 29.7515C34.3799 29.2828 33.6201 29.2828 33.1515 29.7515C32.6828 30.2201 32.6828 30.9799 33.1515 31.4485L35.5515 33.8485C36.0201 34.3171 36.7799 34.3171 37.2485 33.8485L42.0485 29.0485Z" fill="#464a53"/>
</svg>
