<svg width="45" height="45" viewBox="0 0 48 48" fill="none" xmlns="http://www.w3.org/2000/svg">
<path fill-rule="evenodd" clip-rule="evenodd" d="M18.366 0.708575C19.1662 0.244442 20.0749 0 21 0C21.9251 0 22.8338 0.244442 23.634 0.708575L39.384 9.84357C41.004 10.7826 42 12.5136 42 14.3856V21.2826C42 21.8793 41.7629 22.4516 41.341 22.8736C40.919 23.2955 40.3467 23.5326 39.75 23.5326C39.1533 23.5326 38.581 23.2955 38.159 22.8736C37.7371 22.4516 37.5 21.8793 37.5 21.2826V16.5636L23.25 24.8286V43.9806C23.2501 44.5078 23.1112 45.0257 22.8474 45.4822C22.5835 45.9387 22.2041 46.3176 21.7472 46.5807C21.2903 46.8438 20.7721 46.9819 20.2449 46.981C19.7177 46.9801 19.2 46.8402 18.744 46.5756L2.616 37.2216C1.82025 36.76 1.15974 36.0975 0.700626 35.3004C0.241508 34.5033 -0.000100659 33.5995 3.14594e-08 32.6796L3.14594e-08 14.3856C3.14594e-08 12.5136 0.996 10.7856 2.616 9.84357L18.366 0.708575ZM21.375 4.60257L35.265 12.6576L21 20.9316L6.735 12.6576L20.625 4.60257C20.739 4.53675 20.8683 4.50209 21 4.50209C21.1317 4.50209 21.261 4.53675 21.375 4.60257ZM4.5 32.6796V16.5636L18.75 24.8286V41.3766L4.875 33.3276C4.76121 33.2619 4.66667 33.1674 4.60086 33.0537C4.53505 32.94 4.50027 32.811 4.5 32.6796ZM39.516 31.8336C39.7197 31.6195 39.8792 31.3673 39.9854 31.0915C40.0917 30.8158 40.1425 30.5218 40.1352 30.2264C40.1278 29.9309 40.0623 29.6398 39.9424 29.3697C39.8225 29.0996 39.6506 28.8558 39.4365 28.6521C39.2224 28.4484 38.9702 28.2889 38.6945 28.1826C38.4187 28.0764 38.1247 28.0255 37.8293 28.0329C37.5339 28.0403 37.2428 28.1058 36.9727 28.2257C36.7025 28.3455 36.4587 28.5175 36.255 28.7316L29.121 36.2316C28.723 36.6499 28.501 37.2052 28.501 37.7826C28.501 38.36 28.723 38.9153 29.121 39.3336L36.255 46.8336C36.6664 47.266 37.2326 47.5173 37.8293 47.5322C38.4259 47.5471 39.0041 47.3244 39.4365 46.9131C39.8689 46.5017 40.1203 45.9354 40.1352 45.3388C40.1501 44.7421 39.9274 44.164 39.516 43.7316L35.997 40.0326H45.75C46.3467 40.0326 46.919 39.7955 47.341 39.3736C47.7629 38.9516 48 38.3793 48 37.7826C48 37.1858 47.7629 36.6135 47.341 36.1916C46.919 35.7696 46.3467 35.5326 45.75 35.5326H35.997L39.516 31.8336Z" fill="#464a53"/>
</svg>
